# xmcd CD database file
#
# Track frame offsets:
#	150
#	28936
#	59823
#	90678
#	119307
#	133200
#	147454
#	155428
#	166135
#	175910
#	185998
#	194834
#	205665
#	216623
#	253674
#	283622
#	298892
#	310138
#
# Disc length: 4766 seconds
#
# Revision: 0
# Processed by: cddbd v1.5.2PL0 Copyright (c) Steve Scherf et al.
# Submitted via: CDex 1.51
#
DISCID=32129c12
DTITLE=Johnny Hodges - Four Classic Albuns (Castle Rock, Creamy, In a Mellow Tone, Perdido)
DYEAR=2010
DGENRE=Jazz
TTITLE0=Mood Indigo
TTITLE1=Squatty Roo
TTITLE2=Rose Room
TTITLE3=Blues for Basie
TTITLE4=For This Is My Night To Love
TTITLE5=This Love Of Mine
TTITLE6=Whispering
TTITLE7=Tenderly
TTITLE8=Don´t Take Your Love From Me
TTITLE9=But Not For Me
TTITLE10=Prelude To A Kiss
TTITLE11=Polka Dots And Moonbeans
TTITLE12=Passion Flower
TTITLE13=Scuffin´
TTITLE14=Honey Bunny
TTITLE15=Passion
TTITLE16=Pretty Little Girl
TTITLE17=No Use Kicking
EXTD=YEAR: 2010
EXTT0=
EXTT1=
EXTT2=
EXTT3=
EXTT4=
EXTT5=
EXTT6=
EXTT7=
EXTT8=
EXTT9=
EXTT10=
EXTT11=
EXTT12=
EXTT13=
EXTT14=
EXTT15=
EXTT16=
EXTT17=
PLAYORDER=
